<svg width="116" height="46" viewBox="0 0 116 46" fill="none" xmlns="http://www.w3.org/2000/svg">
<path d="M12.716 21.0313C12.716 21.8526 12.518 22.6226 12.122 23.3413C11.7407 24.0599 11.132 24.6393 10.296 25.0793C9.47467 25.5193 8.43333 25.7393 7.172 25.7393H4.598V31.6353H1.518V16.2793H7.172C8.36 16.2793 9.372 16.4846 10.208 16.8953C11.044 17.3059 11.6673 17.8706 12.078 18.5893C12.5033 19.3079 12.716 20.1219 12.716 21.0313ZM7.04 23.2533C7.89067 23.2533 8.52133 23.0626 8.932 22.6813C9.34267 22.2853 9.548 21.7353 9.548 21.0313C9.548 19.5353 8.712 18.7873 7.04 18.7873H4.598V23.2533H7.04ZM14.9908 25.4973C14.9908 24.2653 15.2328 23.1726 15.7168 22.2193C16.2154 21.2659 16.8828 20.5326 17.7188 20.0193C18.5694 19.5059 19.5154 19.2493 20.5568 19.2493C21.4661 19.2493 22.2581 19.4326 22.9328 19.7993C23.6221 20.1659 24.1721 20.6279 24.5828 21.1853V19.4473H27.6848V31.6353H24.5828V29.8533C24.1868 30.4253 23.6368 30.9019 22.9328 31.2833C22.2434 31.6499 21.4441 31.8333 20.5348 31.8333C19.5081 31.8333 18.5694 31.5693 17.7188 31.0413C16.8828 30.5133 16.2154 29.7726 15.7168 28.8193C15.2328 27.8513 14.9908 26.7439 14.9908 25.4973ZM24.5828 25.5413C24.5828 24.7933 24.4361 24.1553 24.1428 23.6273C23.8494 23.0846 23.4534 22.6739 22.9548 22.3953C22.4561 22.1019 21.9208 21.9553 21.3488 21.9553C20.7768 21.9553 20.2488 22.0946 19.7648 22.3733C19.2808 22.6519 18.8848 23.0626 18.5768 23.6053C18.2834 24.1333 18.1368 24.7639 18.1368 25.4973C18.1368 26.2306 18.2834 26.8759 18.5768 27.4333C18.8848 27.9759 19.2808 28.3939 19.7648 28.6873C20.2634 28.9806 20.7914 29.1273 21.3488 29.1273C21.9208 29.1273 22.4561 28.9879 22.9548 28.7093C23.4534 28.4159 23.8494 28.0053 24.1428 27.4773C24.4361 26.9346 24.5828 26.2893 24.5828 25.5413ZM33.1349 17.9953C32.5923 17.9953 32.1376 17.8266 31.7709 17.4893C31.4189 17.1373 31.2429 16.7046 31.2429 16.1913C31.2429 15.6779 31.4189 15.2526 31.7709 14.9153C32.1376 14.5633 32.5923 14.3873 33.1349 14.3873C33.6776 14.3873 34.1249 14.5633 34.4769 14.9153C34.8436 15.2526 35.0269 15.6779 35.0269 16.1913C35.0269 16.7046 34.8436 17.1373 34.4769 17.4893C34.1249 17.8266 33.6776 17.9953 33.1349 17.9953ZM34.6529 19.4473V31.6353H31.5729V19.4473H34.6529ZM45.33 19.2713C46.782 19.2713 47.9553 19.7333 48.85 20.6573C49.7446 21.5666 50.192 22.8426 50.192 24.4853V31.6353H47.112V24.9033C47.112 23.9353 46.87 23.1946 46.386 22.6813C45.902 22.1533 45.242 21.8893 44.406 21.8893C43.5553 21.8893 42.8806 22.1533 42.382 22.6813C41.898 23.1946 41.656 23.9353 41.656 24.9033V31.6353H38.576V19.4473H41.656V20.9653C42.0666 20.4373 42.5873 20.0266 43.218 19.7333C43.8633 19.4253 44.5673 19.2713 45.33 19.2713ZM57.5869 21.9773V27.8733C57.5869 28.2839 57.6822 28.5846 57.8729 28.7753C58.0782 28.9513 58.4156 29.0393 58.8849 29.0393H60.3149V31.6353H58.3789C55.7829 31.6353 54.4849 30.3739 54.4849 27.8513V21.9773H53.0329V19.4473H54.4849V16.4333H57.5869V19.4473H60.3149V21.9773H57.5869ZM75.0702 19.4473L67.5242 37.3993H64.2462L66.8862 31.3273L62.0022 19.4473H65.4562L68.6022 27.9613L71.7922 19.4473H75.0702Z" fill="black"/>
<path fill-rule="evenodd" clip-rule="evenodd" d="M103.694 22.1353L88.1328 8.80454L88.1768 8.75324C91.8653 4.50332 98.2987 4.02258 102.579 7.68916C106.876 11.3704 107.375 17.8381 103.694 22.1352C103.694 22.1352 103.694 22.1352 103.694 22.1353Z" fill="#F7795D"/>
<path fill-rule="evenodd" clip-rule="evenodd" d="M79.7192 34.968L85.3134 15.2562L85.3918 15.2785C90.7874 16.8549 93.9104 22.4919 92.3729 27.9093C90.8281 33.3526 85.1631 36.513 79.7197 34.9682C79.7196 34.9681 79.7194 34.9681 79.7192 34.968Z" fill="#2BC0C5"/>
<path fill-rule="evenodd" clip-rule="evenodd" d="M88.0244 35.2258L88.1931 14.7363L88.271 14.7369C93.8932 14.8248 98.4006 19.4329 98.3543 25.0652C98.3077 30.7233 93.6831 35.2724 88.025 35.2258C88.0248 35.2258 88.0246 35.2258 88.0244 35.2258Z" fill="#FACB6A"/>
<path fill-rule="evenodd" clip-rule="evenodd" d="M96.7695 32.3193L91.2828 12.5771L91.3095 12.5697C96.7527 11.0727 102.384 14.2624 103.897 19.705C105.412 25.1565 102.221 30.804 96.7695 32.3193Z" fill="#D7F4F5"/>
</svg>
